<svg width="274" height="187" viewBox="0 0 274 187" fill="none" xmlns="http://www.w3.org/2000/svg">
<circle cx="7" cy="7" r="4" fill="black"/>
<circle cx="267" cy="7" r="4" fill="black"/>
<circle cx="267" cy="180" r="4" fill="black"/>
<circle cx="7" cy="180" r="4" fill="black"/>
<path d="M17.148 3.331L16.043 2.876C16.186 1.667 17.304 0.874 18.474 0.874C19.904 0.874 20.788 2.018 20.788 3.396C20.788 5.346 18.955 5.645 18.955 6.581V7.114L17.85 7.27V6.477C17.85 5.229 19.618 4.8 19.618 3.305C19.618 2.525 19.215 1.979 18.409 1.979C17.629 1.979 17.2 2.603 17.148 3.331ZM18.422 10.117L17.577 8.999L18.422 7.881L19.267 8.999L18.422 10.117Z" fill="black"/>
<circle cx="24.7373" cy="5.5" r="1" fill="black"/>
<path d="M29.6216 3.331L28.5166 2.876C28.6596 1.667 29.7776 0.874 30.9476 0.874C32.3776 0.874 33.2616 2.018 33.2616 3.396C33.2616 5.346 31.4286 5.645 31.4286 6.581V7.114L30.3236 7.27V6.477C30.3236 5.229 32.0916 4.8 32.0916 3.305C32.0916 2.525 31.6886 1.979 30.8826 1.979C30.1026 1.979 29.6736 2.603 29.6216 3.331ZM30.8956 10.117L30.0506 8.999L30.8956 7.881L31.7406 8.999L30.8956 10.117Z" fill="black"/>
<circle cx="37.2109" cy="5.5" r="1" fill="black"/>
<path d="M42.0953 3.331L40.9903 2.876C41.1333 1.667 42.2513 0.874 43.4213 0.874C44.8513 0.874 45.7353 2.018 45.7353 3.396C45.7353 5.346 43.9023 5.645 43.9023 6.581V7.114L42.7973 7.27V6.477C42.7973 5.229 44.5653 4.8 44.5653 3.305C44.5653 2.525 44.1623 1.979 43.3563 1.979C42.5763 1.979 42.1473 2.603 42.0953 3.331ZM43.3693 10.117L42.5243 8.999L43.3693 7.881L44.2143 8.999L43.3693 10.117Z" fill="black"/>
<circle cx="49.6846" cy="5.5" r="1" fill="black"/>
<path d="M54.5689 3.331L53.4639 2.876C53.6069 1.667 54.7249 0.874 55.8949 0.874C57.3249 0.874 58.2089 2.018 58.2089 3.396C58.2089 5.346 56.3759 5.645 56.3759 6.581V7.114L55.2709 7.27V6.477C55.2709 5.229 57.0389 4.8 57.0389 3.305C57.0389 2.525 56.6359 1.979 55.8299 1.979C55.0499 1.979 54.6209 2.603 54.5689 3.331ZM55.8429 10.117L54.9979 8.999L55.8429 7.881L56.6879 8.999L55.8429 10.117Z" fill="black"/>
<circle cx="62.1582" cy="5.5" r="1" fill="black"/>
<path d="M67.0425 3.331L65.9375 2.876C66.0805 1.667 67.1985 0.874 68.3685 0.874C69.7985 0.874 70.6825 2.018 70.6825 3.396C70.6825 5.346 68.8495 5.645 68.8495 6.581V7.114L67.7445 7.27V6.477C67.7445 5.229 69.5125 4.8 69.5125 3.305C69.5125 2.525 69.1095 1.979 68.3035 1.979C67.5235 1.979 67.0945 2.603 67.0425 3.331ZM68.3165 10.117L67.4715 8.999L68.3165 7.881L69.1615 8.999L68.3165 10.117Z" fill="black"/>
<circle cx="74.6318" cy="5.5" r="1" fill="black"/>
<path d="M79.5162 3.331L78.4112 2.876C78.5542 1.667 79.6722 0.874 80.8422 0.874C82.2722 0.874 83.1562 2.018 83.1562 3.396C83.1562 5.346 81.3232 5.645 81.3232 6.581V7.114L80.2182 7.27V6.477C80.2182 5.229 81.9862 4.8 81.9862 3.305C81.9862 2.525 81.5832 1.979 80.7772 1.979C79.9972 1.979 79.5682 2.603 79.5162 3.331ZM80.7902 10.117L79.9452 8.999L80.7902 7.881L81.6352 8.999L80.7902 10.117Z" fill="black"/>
<circle cx="87.1055" cy="5.5" r="1" fill="black"/>
<path d="M91.9898 3.331L90.8848 2.876C91.0278 1.667 92.1458 0.874 93.3158 0.874C94.7458 0.874 95.6298 2.018 95.6298 3.396C95.6298 5.346 93.7968 5.645 93.7968 6.581V7.114L92.6918 7.27V6.477C92.6918 5.229 94.4598 4.8 94.4598 3.305C94.4598 2.525 94.0568 1.979 93.2508 1.979C92.4708 1.979 92.0418 2.603 91.9898 3.331ZM93.2638 10.117L92.4188 8.999L93.2638 7.881L94.1088 8.999L93.2638 10.117Z" fill="black"/>
<circle cx="99.5791" cy="5.5" r="1" fill="black"/>
<path d="M104.463 3.331L103.358 2.876C103.501 1.667 104.619 0.874 105.789 0.874C107.219 0.874 108.103 2.018 108.103 3.396C108.103 5.346 106.27 5.645 106.27 6.581V7.114L105.165 7.27V6.477C105.165 5.229 106.933 4.8 106.933 3.305C106.933 2.525 106.53 1.979 105.724 1.979C104.944 1.979 104.515 2.603 104.463 3.331ZM105.737 10.117L104.892 8.999L105.737 7.881L106.582 8.999L105.737 10.117Z" fill="black"/>
<circle cx="112.053" cy="5.5" r="1" fill="black"/>
<path d="M116.937 3.331L115.832 2.876C115.975 1.667 117.093 0.874 118.263 0.874C119.693 0.874 120.577 2.018 120.577 3.396C120.577 5.346 118.744 5.645 118.744 6.581V7.114L117.639 7.27V6.477C117.639 5.229 119.407 4.8 119.407 3.305C119.407 2.525 119.004 1.979 118.198 1.979C117.418 1.979 116.989 2.603 116.937 3.331ZM118.211 10.117L117.366 8.999L118.211 7.881L119.056 8.999L118.211 10.117Z" fill="black"/>
<circle cx="124.526" cy="5.5" r="1" fill="black"/>
<path d="M129.411 3.331L128.306 2.876C128.449 1.667 129.567 0.874 130.737 0.874C132.167 0.874 133.051 2.018 133.051 3.396C133.051 5.346 131.218 5.645 131.218 6.581V7.114L130.113 7.27V6.477C130.113 5.229 131.881 4.8 131.881 3.305C131.881 2.525 131.478 1.979 130.672 1.979C129.892 1.979 129.463 2.603 129.411 3.331ZM130.685 10.117L129.84 8.999L130.685 7.881L131.53 8.999L130.685 10.117Z" fill="black"/>
<circle cx="137" cy="5.5" r="1" fill="black"/>
<path d="M141.884 3.331L140.779 2.876C140.922 1.667 142.04 0.874 143.21 0.874C144.64 0.874 145.524 2.018 145.524 3.396C145.524 5.346 143.691 5.645 143.691 6.581V7.114L142.586 7.27V6.477C142.586 5.229 144.354 4.8 144.354 3.305C144.354 2.525 143.951 1.979 143.145 1.979C142.365 1.979 141.936 2.603 141.884 3.331ZM143.158 10.117L142.313 8.999L143.158 7.881L144.003 8.999L143.158 10.117Z" fill="black"/>
<circle cx="149.474" cy="5.5" r="1" fill="black"/>
<path d="M154.359 3.331L153.254 2.876C153.397 1.667 154.515 0.874 155.685 0.874C157.115 0.874 157.999 2.018 157.999 3.396C157.999 5.346 156.166 5.645 156.166 6.581V7.114L155.061 7.27V6.477C155.061 5.229 156.829 4.8 156.829 3.305C156.829 2.525 156.426 1.979 155.62 1.979C154.84 1.979 154.411 2.603 154.359 3.331ZM155.633 10.117L154.788 8.999L155.633 7.881L156.478 8.999L155.633 10.117Z" fill="black"/>
<circle cx="161.947" cy="5.5" r="1" fill="black"/>
<path d="M166.833 3.331L165.728 2.876C165.871 1.667 166.989 0.874 168.159 0.874C169.589 0.874 170.473 2.018 170.473 3.396C170.473 5.346 168.64 5.645 168.64 6.581V7.114L167.535 7.27V6.477C167.535 5.229 169.303 4.8 169.303 3.305C169.303 2.525 168.9 1.979 168.094 1.979C167.314 1.979 166.885 2.603 166.833 3.331ZM168.107 10.117L167.262 8.999L168.107 7.881L168.952 8.999L168.107 10.117Z" fill="black"/>
<circle cx="174.421" cy="5.5" r="1" fill="black"/>
<path d="M179.306 3.331L178.201 2.876C178.344 1.667 179.462 0.874 180.632 0.874C182.062 0.874 182.946 2.018 182.946 3.396C182.946 5.346 181.113 5.645 181.113 6.581V7.114L180.008 7.27V6.477C180.008 5.229 181.776 4.8 181.776 3.305C181.776 2.525 181.373 1.979 180.567 1.979C179.787 1.979 179.358 2.603 179.306 3.331ZM180.58 10.117L179.735 8.999L180.58 7.881L181.425 8.999L180.58 10.117Z" fill="black"/>
<circle cx="186.895" cy="5.5" r="1" fill="black"/>
<path d="M191.78 3.331L190.675 2.876C190.818 1.667 191.936 0.874 193.106 0.874C194.536 0.874 195.42 2.018 195.42 3.396C195.42 5.346 193.587 5.645 193.587 6.581V7.114L192.482 7.27V6.477C192.482 5.229 194.25 4.8 194.25 3.305C194.25 2.525 193.847 1.979 193.041 1.979C192.261 1.979 191.832 2.603 191.78 3.331ZM193.054 10.117L192.209 8.999L193.054 7.881L193.899 8.999L193.054 10.117Z" fill="black"/>
<circle cx="199.368" cy="5.5" r="1" fill="black"/>
<path d="M204.253 3.331L203.148 2.876C203.291 1.667 204.409 0.874 205.579 0.874C207.009 0.874 207.893 2.018 207.893 3.396C207.893 5.346 206.06 5.645 206.06 6.581V7.114L204.955 7.27V6.477C204.955 5.229 206.723 4.8 206.723 3.305C206.723 2.525 206.32 1.979 205.514 1.979C204.734 1.979 204.305 2.603 204.253 3.331ZM205.527 10.117L204.682 8.999L205.527 7.881L206.372 8.999L205.527 10.117Z" fill="black"/>
<circle cx="211.842" cy="5.5" r="1" fill="black"/>
<path d="M216.727 3.331L215.622 2.876C215.765 1.667 216.883 0.874 218.053 0.874C219.483 0.874 220.367 2.018 220.367 3.396C220.367 5.346 218.534 5.645 218.534 6.581V7.114L217.429 7.27V6.477C217.429 5.229 219.197 4.8 219.197 3.305C219.197 2.525 218.794 1.979 217.988 1.979C217.208 1.979 216.779 2.603 216.727 3.331ZM218.001 10.117L217.156 8.999L218.001 7.881L218.846 8.999L218.001 10.117Z" fill="black"/>
<circle cx="224.315" cy="5.5" r="1" fill="black"/>
<path d="M229.201 3.331L228.096 2.876C228.239 1.667 229.357 0.874 230.527 0.874C231.957 0.874 232.841 2.018 232.841 3.396C232.841 5.346 231.008 5.645 231.008 6.581V7.114L229.903 7.27V6.477C229.903 5.229 231.671 4.8 231.671 3.305C231.671 2.525 231.268 1.979 230.462 1.979C229.682 1.979 229.253 2.603 229.201 3.331ZM230.475 10.117L229.63 8.999L230.475 7.881L231.32 8.999L230.475 10.117Z" fill="black"/>
<circle cx="236.789" cy="5.5" r="1" fill="black"/>
<path d="M241.674 3.331L240.569 2.876C240.712 1.667 241.83 0.874 243 0.874C244.43 0.874 245.314 2.018 245.314 3.396C245.314 5.346 243.481 5.645 243.481 6.581V7.114L242.376 7.27V6.477C242.376 5.229 244.144 4.8 244.144 3.305C244.144 2.525 243.741 1.979 242.935 1.979C242.155 1.979 241.726 2.603 241.674 3.331ZM242.948 10.117L242.103 8.999L242.948 7.881L243.793 8.999L242.948 10.117Z" fill="black"/>
<circle cx="249.264" cy="5.5" r="1" fill="black"/>
<path d="M254.148 3.331L253.043 2.876C253.186 1.667 254.304 0.874 255.474 0.874C256.904 0.874 257.788 2.018 257.788 3.396C257.788 5.346 255.955 5.645 255.955 6.581V7.114L254.85 7.27V6.477C254.85 5.229 256.618 4.8 256.618 3.305C256.618 2.525 256.215 1.979 255.409 1.979C254.629 1.979 254.2 2.603 254.148 3.331ZM255.422 10.117L254.577 8.999L255.422 7.881L256.267 8.999L255.422 10.117Z" fill="black"/>
<path d="M256.852 183.669L257.957 184.124C257.814 185.333 256.696 186.126 255.526 186.126C254.096 186.126 253.212 184.982 253.212 183.604C253.212 181.654 255.045 181.355 255.045 180.419V179.886L256.15 179.73V180.523C256.15 181.771 254.382 182.2 254.382 183.695C254.382 184.475 254.785 185.021 255.591 185.021C256.371 185.021 256.8 184.397 256.852 183.669ZM255.578 176.883L256.423 178.001L255.578 179.119L254.733 178.001L255.578 176.883Z" fill="black"/>
<circle cx="249.263" cy="181.5" r="1" transform="rotate(180 249.263 181.5)" fill="black"/>
<path d="M244.378 183.669L245.483 184.124C245.34 185.333 244.222 186.126 243.052 186.126C241.622 186.126 240.738 184.982 240.738 183.604C240.738 181.654 242.571 181.355 242.571 180.419V179.886L243.676 179.73V180.523C243.676 181.771 241.908 182.2 241.908 183.695C241.908 184.475 242.311 185.021 243.117 185.021C243.897 185.021 244.326 184.397 244.378 183.669ZM243.104 176.883L243.949 178.001L243.104 179.119L242.259 178.001L243.104 176.883Z" fill="black"/>
<circle cx="236.789" cy="181.5" r="1" transform="rotate(180 236.789 181.5)" fill="black"/>
<path d="M231.905 183.669L233.01 184.124C232.867 185.333 231.749 186.126 230.579 186.126C229.149 186.126 228.265 184.982 228.265 183.604C228.265 181.654 230.098 181.355 230.098 180.419V179.886L231.203 179.73V180.523C231.203 181.771 229.435 182.2 229.435 183.695C229.435 184.475 229.838 185.021 230.644 185.021C231.424 185.021 231.853 184.397 231.905 183.669ZM230.631 176.883L231.476 178.001L230.631 179.119L229.786 178.001L230.631 176.883Z" fill="black"/>
<circle cx="224.315" cy="181.5" r="1" transform="rotate(180 224.315 181.5)" fill="black"/>
<path d="M219.431 183.669L220.536 184.124C220.393 185.333 219.275 186.126 218.105 186.126C216.675 186.126 215.791 184.982 215.791 183.604C215.791 181.654 217.624 181.355 217.624 180.419V179.886L218.729 179.73V180.523C218.729 181.771 216.961 182.2 216.961 183.695C216.961 184.475 217.364 185.021 218.17 185.021C218.95 185.021 219.379 184.397 219.431 183.669ZM218.157 176.883L219.002 178.001L218.157 179.119L217.312 178.001L218.157 176.883Z" fill="black"/>
<circle cx="211.842" cy="181.5" r="1" transform="rotate(180 211.842 181.5)" fill="black"/>
<path d="M206.957 183.669L208.062 184.124C207.919 185.333 206.801 186.126 205.631 186.126C204.201 186.126 203.317 184.982 203.317 183.604C203.317 181.654 205.15 181.355 205.15 180.419V179.886L206.255 179.73V180.523C206.255 181.771 204.487 182.2 204.487 183.695C204.487 184.475 204.89 185.021 205.696 185.021C206.476 185.021 206.905 184.397 206.957 183.669ZM205.683 176.883L206.528 178.001L205.683 179.119L204.838 178.001L205.683 176.883Z" fill="black"/>
<circle cx="199.368" cy="181.5" r="1" transform="rotate(180 199.368 181.5)" fill="black"/>
<path d="M194.484 183.669L195.589 184.124C195.446 185.333 194.328 186.126 193.158 186.126C191.728 186.126 190.844 184.982 190.844 183.604C190.844 181.654 192.677 181.355 192.677 180.419V179.886L193.782 179.73V180.523C193.782 181.771 192.014 182.2 192.014 183.695C192.014 184.475 192.417 185.021 193.223 185.021C194.003 185.021 194.432 184.397 194.484 183.669ZM193.21 176.883L194.055 178.001L193.21 179.119L192.365 178.001L193.21 176.883Z" fill="black"/>
<circle cx="186.895" cy="181.5" r="1" transform="rotate(180 186.895 181.5)" fill="black"/>
<path d="M182.01 183.669L183.115 184.124C182.972 185.333 181.854 186.126 180.684 186.126C179.254 186.126 178.37 184.982 178.37 183.604C178.37 181.654 180.203 181.355 180.203 180.419V179.886L181.308 179.73V180.523C181.308 181.771 179.54 182.2 179.54 183.695C179.54 184.475 179.943 185.021 180.749 185.021C181.529 185.021 181.958 184.397 182.01 183.669ZM180.736 176.883L181.581 178.001L180.736 179.119L179.891 178.001L180.736 176.883Z" fill="black"/>
<circle cx="174.421" cy="181.5" r="1" transform="rotate(180 174.421 181.5)" fill="black"/>
<path d="M169.537 183.669L170.642 184.124C170.499 185.333 169.381 186.126 168.211 186.126C166.781 186.126 165.897 184.982 165.897 183.604C165.897 181.654 167.73 181.355 167.73 180.419V179.886L168.835 179.73V180.523C168.835 181.771 167.067 182.2 167.067 183.695C167.067 184.475 167.47 185.021 168.276 185.021C169.056 185.021 169.485 184.397 169.537 183.669ZM168.263 176.883L169.108 178.001L168.263 179.119L167.418 178.001L168.263 176.883Z" fill="black"/>
<circle cx="161.947" cy="181.5" r="1" transform="rotate(180 161.947 181.5)" fill="black"/>
<path d="M157.063 183.669L158.168 184.124C158.025 185.333 156.907 186.126 155.737 186.126C154.307 186.126 153.423 184.982 153.423 183.604C153.423 181.654 155.256 181.355 155.256 180.419V179.886L156.361 179.73V180.523C156.361 181.771 154.593 182.2 154.593 183.695C154.593 184.475 154.996 185.021 155.802 185.021C156.582 185.021 157.011 184.397 157.063 183.669ZM155.789 176.883L156.634 178.001L155.789 179.119L154.944 178.001L155.789 176.883Z" fill="black"/>
<circle cx="149.474" cy="181.5" r="1" transform="rotate(180 149.474 181.5)" fill="black"/>
<path d="M144.589 183.669L145.694 184.124C145.551 185.333 144.433 186.126 143.263 186.126C141.833 186.126 140.949 184.982 140.949 183.604C140.949 181.654 142.782 181.355 142.782 180.419V179.886L143.887 179.73V180.523C143.887 181.771 142.119 182.2 142.119 183.695C142.119 184.475 142.522 185.021 143.328 185.021C144.108 185.021 144.537 184.397 144.589 183.669ZM143.315 176.883L144.16 178.001L143.315 179.119L142.47 178.001L143.315 176.883Z" fill="black"/>
<circle cx="137" cy="181.5" r="1" transform="rotate(180 137 181.5)" fill="black"/>
<path d="M132.116 183.669L133.221 184.124C133.078 185.333 131.96 186.126 130.79 186.126C129.36 186.126 128.476 184.982 128.476 183.604C128.476 181.654 130.309 181.355 130.309 180.419V179.886L131.414 179.73V180.523C131.414 181.771 129.646 182.2 129.646 183.695C129.646 184.475 130.049 185.021 130.855 185.021C131.635 185.021 132.064 184.397 132.116 183.669ZM130.842 176.883L131.687 178.001L130.842 179.119L129.997 178.001L130.842 176.883Z" fill="black"/>
<circle cx="124.526" cy="181.5" r="1" transform="rotate(180 124.526 181.5)" fill="black"/>
<path d="M119.641 183.669L120.746 184.124C120.603 185.333 119.485 186.126 118.315 186.126C116.885 186.126 116.001 184.982 116.001 183.604C116.001 181.654 117.834 181.355 117.834 180.419V179.886L118.939 179.73V180.523C118.939 181.771 117.171 182.2 117.171 183.695C117.171 184.475 117.574 185.021 118.38 185.021C119.16 185.021 119.589 184.397 119.641 183.669ZM118.367 176.883L119.212 178.001L118.367 179.119L117.522 178.001L118.367 176.883Z" fill="black"/>
<circle cx="112.053" cy="181.5" r="1" transform="rotate(180 112.053 181.5)" fill="black"/>
<path d="M107.167 183.669L108.272 184.124C108.129 185.333 107.011 186.126 105.841 186.126C104.411 186.126 103.527 184.982 103.527 183.604C103.527 181.654 105.36 181.355 105.36 180.419V179.886L106.465 179.73V180.523C106.465 181.771 104.697 182.2 104.697 183.695C104.697 184.475 105.1 185.021 105.906 185.021C106.686 185.021 107.115 184.397 107.167 183.669ZM105.893 176.883L106.738 178.001L105.893 179.119L105.048 178.001L105.893 176.883Z" fill="black"/>
<circle cx="99.5791" cy="181.5" r="1" transform="rotate(180 99.5791 181.5)" fill="black"/>
<path d="M94.6938 183.669L95.7988 184.124C95.6558 185.333 94.5378 186.126 93.3678 186.126C91.9378 186.126 91.0538 184.982 91.0538 183.604C91.0538 181.654 92.8868 181.355 92.8868 180.419V179.886L93.9918 179.73V180.523C93.9918 181.771 92.2238 182.2 92.2238 183.695C92.2238 184.475 92.6268 185.021 93.4328 185.021C94.2128 185.021 94.6418 184.397 94.6938 183.669ZM93.4198 176.883L94.2648 178.001L93.4198 179.119L92.5748 178.001L93.4198 176.883Z" fill="black"/>
<circle cx="87.1055" cy="181.5" r="1" transform="rotate(180 87.1055 181.5)" fill="black"/>
<path d="M82.2202 183.669L83.3252 184.124C83.1822 185.333 82.0642 186.126 80.8942 186.126C79.4642 186.126 78.5802 184.982 78.5802 183.604C78.5802 181.654 80.4132 181.355 80.4132 180.419V179.886L81.5182 179.73V180.523C81.5182 181.771 79.7502 182.2 79.7502 183.695C79.7502 184.475 80.1532 185.021 80.9592 185.021C81.7392 185.021 82.1682 184.397 82.2202 183.669ZM80.9462 176.883L81.7912 178.001L80.9462 179.119L80.1012 178.001L80.9462 176.883Z" fill="black"/>
<circle cx="74.6318" cy="181.5" r="1" transform="rotate(180 74.6318 181.5)" fill="black"/>
<path d="M69.7465 183.669L70.8515 184.124C70.7085 185.333 69.5905 186.126 68.4205 186.126C66.9905 186.126 66.1065 184.982 66.1065 183.604C66.1065 181.654 67.9395 181.355 67.9395 180.419V179.886L69.0445 179.73V180.523C69.0445 181.771 67.2765 182.2 67.2765 183.695C67.2765 184.475 67.6795 185.021 68.4855 185.021C69.2655 185.021 69.6945 184.397 69.7465 183.669ZM68.4725 176.883L69.3175 178.001L68.4725 179.119L67.6275 178.001L68.4725 176.883Z" fill="black"/>
<circle cx="62.1582" cy="181.5" r="1" transform="rotate(180 62.1582 181.5)" fill="black"/>
<path d="M57.2729 183.669L58.3779 184.124C58.2349 185.333 57.1169 186.126 55.9469 186.126C54.5169 186.126 53.6329 184.982 53.6329 183.604C53.6329 181.654 55.4659 181.355 55.4659 180.419V179.886L56.5709 179.73V180.523C56.5709 181.771 54.8029 182.2 54.8029 183.695C54.8029 184.475 55.2059 185.021 56.0119 185.021C56.7919 185.021 57.2209 184.397 57.2729 183.669ZM55.9989 176.883L56.8439 178.001L55.9989 179.119L55.1539 178.001L55.9989 176.883Z" fill="black"/>
<circle cx="49.6846" cy="181.5" r="1" transform="rotate(180 49.6846 181.5)" fill="black"/>
<path d="M44.7993 183.669L45.9043 184.124C45.7613 185.333 44.6433 186.126 43.4733 186.126C42.0433 186.126 41.1593 184.982 41.1593 183.604C41.1593 181.654 42.9923 181.355 42.9923 180.419V179.886L44.0973 179.73V180.523C44.0973 181.771 42.3293 182.2 42.3293 183.695C42.3293 184.475 42.7323 185.021 43.5383 185.021C44.3183 185.021 44.7473 184.397 44.7993 183.669ZM43.5253 176.883L44.3703 178.001L43.5253 179.119L42.6803 178.001L43.5253 176.883Z" fill="black"/>
<circle cx="37.2109" cy="181.5" r="1" transform="rotate(180 37.2109 181.5)" fill="black"/>
<path d="M32.3256 183.669L33.4306 184.124C33.2876 185.333 32.1696 186.126 30.9996 186.126C29.5696 186.126 28.6856 184.982 28.6856 183.604C28.6856 181.654 30.5186 181.355 30.5186 180.419V179.886L31.6236 179.73V180.523C31.6236 181.771 29.8556 182.2 29.8556 183.695C29.8556 184.475 30.2586 185.021 31.0646 185.021C31.8446 185.021 32.2736 184.397 32.3256 183.669ZM31.0516 176.883L31.8966 178.001L31.0516 179.119L30.2066 178.001L31.0516 176.883Z" fill="black"/>
<circle cx="24.7363" cy="181.5" r="1" transform="rotate(180 24.7363 181.5)" fill="black"/>
<path d="M19.852 183.669L20.957 184.124C20.814 185.333 19.696 186.126 18.526 186.126C17.096 186.126 16.212 184.982 16.212 183.604C16.212 181.654 18.045 181.355 18.045 180.419V179.886L19.15 179.73V180.523C19.15 181.771 17.382 182.2 17.382 183.695C17.382 184.475 17.785 185.021 18.591 185.021C19.371 185.021 19.8 184.397 19.852 183.669ZM18.578 176.883L19.423 178.001L18.578 179.119L17.733 178.001L18.578 176.883Z" fill="black"/>
<path d="M3.331 169.852L2.876 170.957C1.667 170.814 0.874 169.696 0.874 168.526C0.874 167.096 2.018 166.212 3.396 166.212C5.346 166.212 5.645 168.045 6.581 168.045H7.114L7.27 169.15H6.477C5.229 169.15 4.8 167.382 3.305 167.382C2.525 167.382 1.979 167.785 1.979 168.591C1.979 169.371 2.603 169.8 3.331 169.852ZM10.117 168.578L8.999 169.423L7.881 168.578L8.999 167.733L10.117 168.578Z" fill="black"/>
<circle cx="5.5" cy="162.32" r="1" transform="rotate(-90 5.5 162.32)" fill="black"/>
<path d="M3.331 157.492L2.876 158.597C1.667 158.454 0.874 157.336 0.874 156.166C0.874 154.736 2.018 153.852 3.396 153.852C5.346 153.852 5.645 155.685 6.581 155.685H7.114L7.27 156.79H6.477C5.229 156.79 4.8 155.022 3.305 155.022C2.525 155.022 1.979 155.425 1.979 156.231C1.979 157.011 2.603 157.44 3.331 157.492ZM10.117 156.218L8.999 157.063L7.881 156.218L8.999 155.373L10.117 156.218Z" fill="black"/>
<circle cx="5.5" cy="149.96" r="1" transform="rotate(-90 5.5 149.96)" fill="black"/>
<path d="M3.331 145.132L2.876 146.237C1.667 146.094 0.874 144.976 0.874 143.806C0.874 142.376 2.018 141.492 3.396 141.492C5.346 141.492 5.645 143.325 6.581 143.325H7.114L7.27 144.43H6.477C5.229 144.43 4.8 142.662 3.305 142.662C2.525 142.662 1.979 143.065 1.979 143.871C1.979 144.651 2.603 145.08 3.331 145.132ZM10.117 143.858L8.999 144.703L7.881 143.858L8.999 143.013L10.117 143.858Z" fill="black"/>
<circle cx="5.5" cy="137.6" r="1" transform="rotate(-90 5.5 137.6)" fill="black"/>
<path d="M3.331 132.772L2.876 133.877C1.667 133.734 0.874 132.616 0.874 131.446C0.874 130.016 2.018 129.132 3.396 129.132C5.346 129.132 5.645 130.965 6.581 130.965H7.114L7.27 132.07H6.477C5.229 132.07 4.8 130.302 3.305 130.302C2.525 130.302 1.979 130.705 1.979 131.511C1.979 132.291 2.603 132.72 3.331 132.772ZM10.117 131.498L8.999 132.343L7.881 131.498L8.999 130.653L10.117 131.498Z" fill="black"/>
<circle cx="5.5" cy="125.24" r="1" transform="rotate(-90 5.5 125.24)" fill="black"/>
<path d="M3.331 120.412L2.876 121.517C1.667 121.374 0.874 120.256 0.874 119.086C0.874 117.656 2.018 116.772 3.396 116.772C5.346 116.772 5.645 118.605 6.581 118.605H7.114L7.27 119.71H6.477C5.229 119.71 4.8 117.942 3.305 117.942C2.525 117.942 1.979 118.345 1.979 119.151C1.979 119.931 2.603 120.36 3.331 120.412ZM10.117 119.138L8.999 119.983L7.881 119.138L8.999 118.293L10.117 119.138Z" fill="black"/>
<circle cx="5.5" cy="112.88" r="1" transform="rotate(-90 5.5 112.88)" fill="black"/>
<path d="M3.331 108.052L2.876 109.157C1.667 109.014 0.874 107.896 0.874 106.726C0.874 105.296 2.018 104.412 3.396 104.412C5.346 104.412 5.645 106.245 6.581 106.245H7.114L7.27 107.35H6.477C5.229 107.35 4.8 105.582 3.305 105.582C2.525 105.582 1.979 105.985 1.979 106.791C1.979 107.571 2.603 108 3.331 108.052ZM10.117 106.778L8.999 107.623L7.881 106.778L8.999 105.933L10.117 106.778Z" fill="black"/>
<circle cx="5.5" cy="100.52" r="1" transform="rotate(-90 5.5 100.52)" fill="black"/>
<path d="M3.331 95.6918L2.876 96.7968C1.667 96.6538 0.874 95.5358 0.874 94.3658C0.874 92.9358 2.018 92.0518 3.396 92.0518C5.346 92.0518 5.645 93.8848 6.581 93.8848H7.114L7.27 94.9898H6.477C5.229 94.9898 4.8 93.2218 3.305 93.2218C2.525 93.2218 1.979 93.6248 1.979 94.4308C1.979 95.2108 2.603 95.6398 3.331 95.6918ZM10.117 94.4178L8.999 95.2628L7.881 94.4178L8.999 93.5728L10.117 94.4178Z" fill="black"/>
<circle cx="5.5" cy="88.1602" r="1" transform="rotate(-90 5.5 88.1602)" fill="black"/>
<path d="M3.331 83.332L2.876 84.437C1.667 84.294 0.874 83.176 0.874 82.006C0.874 80.576 2.018 79.692 3.396 79.692C5.346 79.692 5.645 81.525 6.581 81.525H7.114L7.27 82.63H6.477C5.229 82.63 4.8 80.862 3.305 80.862C2.525 80.862 1.979 81.265 1.979 82.071C1.979 82.851 2.603 83.28 3.331 83.332ZM10.117 82.058L8.999 82.903L7.881 82.058L8.999 81.213L10.117 82.058Z" fill="black"/>
<circle cx="5.5" cy="75.7998" r="1" transform="rotate(-90 5.5 75.7998)" fill="black"/>
<path d="M3.331 70.9721L2.876 72.0771C1.667 71.9341 0.874 70.8161 0.874 69.6461C0.874 68.2161 2.018 67.3321 3.396 67.3321C5.346 67.3321 5.645 69.1651 6.581 69.1651H7.114L7.27 70.2701H6.477C5.229 70.2701 4.8 68.5021 3.305 68.5021C2.525 68.5021 1.979 68.9051 1.979 69.7111C1.979 70.4911 2.603 70.9201 3.331 70.9721ZM10.117 69.6981L8.999 70.5431L7.881 69.6981L8.999 68.8531L10.117 69.6981Z" fill="black"/>
<circle cx="5.5" cy="63.4399" r="1" transform="rotate(-90 5.5 63.4399)" fill="black"/>
<path d="M3.331 58.6118L2.876 59.7168C1.667 59.5738 0.874 58.4558 0.874 57.2858C0.874 55.8558 2.018 54.9718 3.396 54.9718C5.346 54.9718 5.645 56.8048 6.581 56.8048H7.114L7.27 57.9098H6.477C5.229 57.9098 4.8 56.1418 3.305 56.1418C2.525 56.1418 1.979 56.5448 1.979 57.3508C1.979 58.1308 2.603 58.5598 3.331 58.6118ZM10.117 57.3378L8.999 58.1828L7.881 57.3378L8.999 56.4928L10.117 57.3378Z" fill="black"/>
<circle cx="5.5" cy="51.0801" r="1" transform="rotate(-90 5.5 51.0801)" fill="black"/>
<path d="M3.331 46.2519L2.876 47.3569C1.667 47.2139 0.874 46.0959 0.874 44.9259C0.874 43.4959 2.018 42.6119 3.396 42.6119C5.346 42.6119 5.645 44.4449 6.581 44.4449H7.114L7.27 45.5499H6.477C5.229 45.5499 4.8 43.7819 3.305 43.7819C2.525 43.7819 1.979 44.1849 1.979 44.9909C1.979 45.7709 2.603 46.1999 3.331 46.2519ZM10.117 44.9779L8.999 45.8229L7.881 44.9779L8.999 44.1329L10.117 44.9779Z" fill="black"/>
<circle cx="5.5" cy="38.7202" r="1" transform="rotate(-90 5.5 38.7202)" fill="black"/>
<path d="M3.331 33.892L2.876 34.997C1.667 34.854 0.874 33.736 0.874 32.566C0.874 31.136 2.018 30.252 3.396 30.252C5.346 30.252 5.645 32.085 6.581 32.085H7.114L7.27 33.19H6.477C5.229 33.19 4.8 31.422 3.305 31.422C2.525 31.422 1.979 31.825 1.979 32.631C1.979 33.411 2.603 33.84 3.331 33.892ZM10.117 32.618L8.999 33.463L7.881 32.618L8.999 31.773L10.117 32.618Z" fill="black"/>
<circle cx="5.5" cy="26.3599" r="1" transform="rotate(-90 5.5 26.3599)" fill="black"/>
<path d="M3.331 21.5322L2.876 22.6372C1.667 22.4942 0.874 21.3762 0.874 20.2062C0.874 18.7762 2.018 17.8922 3.396 17.8922C5.346 17.8922 5.645 19.7252 6.581 19.7252H7.114L7.27 20.8302H6.477C5.229 20.8302 4.8 19.0622 3.305 19.0622C2.525 19.0622 1.979 19.4652 1.979 20.2712C1.979 21.0512 2.603 21.4802 3.331 21.5322ZM10.117 20.2582L8.999 21.1032L7.881 20.2582L8.999 19.4132L10.117 20.2582Z" fill="black"/>
<path d="M270.669 17.148L271.124 16.043C272.333 16.186 273.126 17.304 273.126 18.474C273.126 19.904 271.982 20.788 270.604 20.788C268.654 20.788 268.355 18.955 267.419 18.955H266.886L266.73 17.85H267.523C268.771 17.85 269.2 19.618 270.695 19.618C271.475 19.618 272.021 19.215 272.021 18.409C272.021 17.629 271.397 17.2 270.669 17.148ZM263.883 18.422L265.001 17.577L266.119 18.422L265.001 19.267L263.883 18.422Z" fill="black"/>
<circle cx="268.5" cy="24.6802" r="1" transform="rotate(90 268.5 24.6802)" fill="black"/>
<path d="M270.669 29.5079L271.124 28.4029C272.333 28.5459 273.126 29.6639 273.126 30.8339C273.126 32.2639 271.982 33.1479 270.604 33.1479C268.654 33.1479 268.355 31.3149 267.419 31.3149H266.886L266.73 30.2099H267.523C268.771 30.2099 269.2 31.9779 270.695 31.9779C271.475 31.9779 272.021 31.5749 272.021 30.7689C272.021 29.9889 271.397 29.5599 270.669 29.5079ZM263.883 30.7819L265.001 29.9369L266.119 30.7819L265.001 31.6269L263.883 30.7819Z" fill="black"/>
<circle cx="268.5" cy="37.04" r="1" transform="rotate(90 268.5 37.04)" fill="black"/>
<path d="M270.669 41.8682L271.124 40.7632C272.333 40.9062 273.126 42.0242 273.126 43.1942C273.126 44.6242 271.982 45.5082 270.604 45.5082C268.654 45.5082 268.355 43.6752 267.419 43.6752H266.886L266.73 42.5702H267.523C268.771 42.5702 269.2 44.3382 270.695 44.3382C271.475 44.3382 272.021 43.9352 272.021 43.1292C272.021 42.3492 271.397 41.9202 270.669 41.8682ZM263.883 43.1422L265.001 42.2972L266.119 43.1422L265.001 43.9872L263.883 43.1422Z" fill="black"/>
<circle cx="268.5" cy="49.3999" r="1" transform="rotate(90 268.5 49.3999)" fill="black"/>
<path d="M270.669 54.2281L271.124 53.1231C272.333 53.2661 273.126 54.3841 273.126 55.5541C273.126 56.9841 271.982 57.8681 270.604 57.8681C268.654 57.8681 268.355 56.0351 267.419 56.0351H266.886L266.73 54.9301H267.523C268.771 54.9301 269.2 56.6981 270.695 56.6981C271.475 56.6981 272.021 56.2951 272.021 55.4891C272.021 54.7091 271.397 54.2801 270.669 54.2281ZM263.883 55.5021L265.001 54.6571L266.119 55.5021L265.001 56.3471L263.883 55.5021Z" fill="black"/>
<circle cx="268.5" cy="61.7598" r="1" transform="rotate(90 268.5 61.7598)" fill="black"/>
<path d="M270.669 66.5879L271.124 65.4829C272.333 65.6259 273.126 66.7439 273.126 67.9139C273.126 69.3439 271.982 70.2279 270.604 70.2279C268.654 70.2279 268.355 68.3949 267.419 68.3949H266.886L266.73 67.2899H267.523C268.771 67.2899 269.2 69.0579 270.695 69.0579C271.475 69.0579 272.021 68.6549 272.021 67.8489C272.021 67.0689 271.397 66.6399 270.669 66.5879ZM263.883 67.8619L265.001 67.0169L266.119 67.8619L265.001 68.7069L263.883 67.8619Z" fill="black"/>
<circle cx="268.5" cy="74.1201" r="1" transform="rotate(90 268.5 74.1201)" fill="black"/>
<path d="M270.669 78.9478L271.124 77.8428C272.333 77.9858 273.126 79.1038 273.126 80.2738C273.126 81.7038 271.982 82.5878 270.604 82.5878C268.654 82.5878 268.355 80.7548 267.419 80.7548H266.886L266.73 79.6498H267.523C268.771 79.6498 269.2 81.4178 270.695 81.4178C271.475 81.4178 272.021 81.0148 272.021 80.2088C272.021 79.4288 271.397 78.9998 270.669 78.9478ZM263.883 80.2218L265.001 79.3768L266.119 80.2218L265.001 81.0668L263.883 80.2218Z" fill="black"/>
<circle cx="268.5" cy="86.48" r="1" transform="rotate(90 268.5 86.48)" fill="black"/>
<path d="M270.669 91.3082L271.124 90.2032C272.333 90.3462 273.126 91.4642 273.126 92.6342C273.126 94.0642 271.982 94.9482 270.604 94.9482C268.654 94.9482 268.355 93.1152 267.419 93.1152H266.886L266.73 92.0102H267.523C268.771 92.0102 269.2 93.7782 270.695 93.7782C271.475 93.7782 272.021 93.3752 272.021 92.5692C272.021 91.7892 271.397 91.3602 270.669 91.3082ZM263.883 92.5822L265.001 91.7372L266.119 92.5822L265.001 93.4272L263.883 92.5822Z" fill="black"/>
<circle cx="268.5" cy="98.8398" r="1" transform="rotate(90 268.5 98.8398)" fill="black"/>
<path d="M270.669 103.668L271.124 102.563C272.333 102.706 273.126 103.824 273.126 104.994C273.126 106.424 271.982 107.308 270.604 107.308C268.654 107.308 268.355 105.475 267.419 105.475H266.886L266.73 104.37H267.523C268.771 104.37 269.2 106.138 270.695 106.138C271.475 106.138 272.021 105.735 272.021 104.929C272.021 104.149 271.397 103.72 270.669 103.668ZM263.883 104.942L265.001 104.097L266.119 104.942L265.001 105.787L263.883 104.942Z" fill="black"/>
<circle cx="268.5" cy="111.2" r="1" transform="rotate(90 268.5 111.2)" fill="black"/>
<path d="M270.669 116.028L271.124 114.923C272.333 115.066 273.126 116.184 273.126 117.354C273.126 118.784 271.982 119.668 270.604 119.668C268.654 119.668 268.355 117.835 267.419 117.835H266.886L266.73 116.73H267.523C268.771 116.73 269.2 118.498 270.695 118.498C271.475 118.498 272.021 118.095 272.021 117.289C272.021 116.509 271.397 116.08 270.669 116.028ZM263.883 117.302L265.001 116.457L266.119 117.302L265.001 118.147L263.883 117.302Z" fill="black"/>
<circle cx="268.5" cy="123.56" r="1" transform="rotate(90 268.5 123.56)" fill="black"/>
<path d="M270.669 128.388L271.124 127.283C272.333 127.426 273.126 128.544 273.126 129.714C273.126 131.144 271.982 132.028 270.604 132.028C268.654 132.028 268.355 130.195 267.419 130.195H266.886L266.73 129.09H267.523C268.771 129.09 269.2 130.858 270.695 130.858C271.475 130.858 272.021 130.455 272.021 129.649C272.021 128.869 271.397 128.44 270.669 128.388ZM263.883 129.662L265.001 128.817L266.119 129.662L265.001 130.507L263.883 129.662Z" fill="black"/>
<circle cx="268.5" cy="135.92" r="1" transform="rotate(90 268.5 135.92)" fill="black"/>
<path d="M270.669 140.748L271.124 139.643C272.333 139.786 273.126 140.904 273.126 142.074C273.126 143.504 271.982 144.388 270.604 144.388C268.654 144.388 268.355 142.555 267.419 142.555H266.886L266.73 141.45H267.523C268.771 141.45 269.2 143.218 270.695 143.218C271.475 143.218 272.021 142.815 272.021 142.009C272.021 141.229 271.397 140.8 270.669 140.748ZM263.883 142.022L265.001 141.177L266.119 142.022L265.001 142.867L263.883 142.022Z" fill="black"/>
<circle cx="268.5" cy="148.28" r="1" transform="rotate(90 268.5 148.28)" fill="black"/>
<path d="M270.669 153.108L271.124 152.003C272.333 152.146 273.126 153.264 273.126 154.434C273.126 155.864 271.982 156.748 270.604 156.748C268.654 156.748 268.355 154.915 267.419 154.915H266.886L266.73 153.81H267.523C268.771 153.81 269.2 155.578 270.695 155.578C271.475 155.578 272.021 155.175 272.021 154.369C272.021 153.589 271.397 153.16 270.669 153.108ZM263.883 154.382L265.001 153.537L266.119 154.382L265.001 155.227L263.883 154.382Z" fill="black"/>
<circle cx="268.5" cy="160.64" r="1" transform="rotate(90 268.5 160.64)" fill="black"/>
<path d="M270.669 165.468L271.124 164.363C272.333 164.506 273.126 165.624 273.126 166.794C273.126 168.224 271.982 169.108 270.604 169.108C268.654 169.108 268.355 167.275 267.419 167.275H266.886L266.73 166.17H267.523C268.771 166.17 269.2 167.938 270.695 167.938C271.475 167.938 272.021 167.535 272.021 166.729C272.021 165.949 271.397 165.52 270.669 165.468ZM263.883 166.742L265.001 165.897L266.119 166.742L265.001 167.587L263.883 166.742Z" fill="black"/>
</svg>
