<svg width="733" height="201" viewBox="0 0 733 201" fill="none" xmlns="http://www.w3.org/2000/svg">
<g clip-path="url(#clip0_2418_18670)">
<path d="M3.6001 86.55C3.6001 80.5853 8.43542 75.75 14.4001 75.75L305.8 75.75V197.25H14.4001C8.43541 197.25 3.6001 192.415 3.6001 186.45L3.6001 86.55Z" fill="#F11C26"/>
<rect x="5.4002" y="77.55" width="298.5" height="117.9" rx="9" stroke="white" stroke-width="3.6"/>
<rect x="294.9" y="75.75" width="15.3" height="121.5" fill="#F11C26"/>
<path d="M34.3644 183.398L21.8436 181.8L40.3584 88.2936H40.6248L72.1932 157.957L103.362 88.2936H103.628L122.276 181.8L109.622 183.398L98.5668 125.59H98.3004L72.3264 182.866H72.06L45.42 125.59H45.1536L34.3644 183.398ZM150.557 181.8L137.504 182.866V90.4248L150.557 88.2936V181.8ZM185.68 181.8L172.626 183.398V88.2936H172.892L231.5 152.23V92.556L244.554 90.4248V183.931H244.288L185.68 119.995V181.8ZM279.585 181.8L266.531 182.866V90.4248L279.585 88.2936V181.8Z" fill="white"/>
</g>
<path d="M307.6 75.75V73.95H305.8L14.4001 73.95C7.44131 73.95 1.8001 79.5912 1.8001 86.55L1.8001 186.45C1.8001 193.409 7.44129 199.05 14.4001 199.05H305.8H307.6V197.25V75.75Z" stroke="#F11C26" stroke-width="3.6"/>
<mask id="path-6-outside-1_2418_18670" maskUnits="userSpaceOnUse" x="270.817" y="42.9501" width="462" height="158" fill="black">
<rect fill="white" x="270.817" y="42.9501" width="462" height="158"/>
<path fill-rule="evenodd" clip-rule="evenodd" d="M415.581 75.75C401.206 58.4362 375.952 46.9501 347.199 46.9501C318.445 46.9501 293.191 58.4362 278.817 75.7501H300.4V197.25L718 197.25C723.964 197.25 728.8 192.415 728.8 186.45V86.55C728.8 80.5854 723.964 75.75 718 75.75L415.581 75.75Z"/>
</mask>
<path fill-rule="evenodd" clip-rule="evenodd" d="M415.581 75.75C401.206 58.4362 375.952 46.9501 347.199 46.9501C318.445 46.9501 293.191 58.4362 278.817 75.7501H300.4V197.25L718 197.25C723.964 197.25 728.8 192.415 728.8 186.45V86.55C728.8 80.5854 723.964 75.75 718 75.75L415.581 75.75Z" fill="#F11C26"/>
<path d="M415.581 75.75L412.811 78.0496L413.89 79.35H415.581V75.75ZM278.817 75.7501L276.047 73.4505L271.149 79.3501H278.817V75.7501ZM300.4 75.7501H304V72.1501H300.4V75.7501ZM300.4 197.25H296.8V200.85H300.4V197.25ZM418.35 73.4504C403.185 55.1842 376.844 43.3501 347.199 43.3501V50.5501C375.06 50.5501 399.227 61.6881 412.811 78.0496L418.35 73.4504ZM347.199 43.3501C317.554 43.3501 291.212 55.1843 276.047 73.4505L281.587 78.0497C295.171 61.6881 319.337 50.5501 347.199 50.5501V43.3501ZM278.817 79.3501H300.4V72.1501H278.817V79.3501ZM304 197.25V75.7501H296.8V197.25H304ZM718 193.65L300.4 193.65V200.85L718 200.85V193.65ZM725.2 186.45C725.2 190.426 721.976 193.65 718 193.65V200.85C725.952 200.85 732.4 194.403 732.4 186.45H725.2ZM725.2 86.55V186.45H732.4V86.55H725.2ZM718 79.35C721.976 79.35 725.2 82.5736 725.2 86.55H732.4C732.4 78.5971 725.953 72.15 718 72.15V79.35ZM415.581 79.35L718 79.35V72.15L415.581 72.15V79.35Z" fill="#F11C26" mask="url(#path-6-outside-1_2418_18670)"/>
<path fill-rule="evenodd" clip-rule="evenodd" d="M278.818 79.3501H280.508L281.588 78.0497C295.172 61.6881 319.338 50.5501 347.2 50.5501C375.062 50.5501 399.228 61.6881 412.812 78.0497L413.892 79.3501H415.582L718 79.3501C721.976 79.3501 725.2 82.5736 725.2 86.5501V186.45C725.2 190.427 721.976 193.65 718 193.65L269.8 193.65V197.25L718 197.25C723.964 197.25 728.8 192.415 728.8 186.45V86.5501C728.8 80.5854 723.964 75.7501 718 75.7501L415.582 75.7501C401.207 58.4362 375.953 46.9501 347.2 46.9501C318.446 46.9501 293.192 58.4362 278.818 75.7501H269.8V79.3501H278.818Z" fill="white"/>
<path d="M428.178 181.05L415.124 182.648V89.6748H439.766C458.414 89.6748 470.669 100.864 470.669 116.581C470.669 138.959 454.951 146.152 435.238 146.152H428.178V181.05ZM428.178 101.663V134.164H438.301C450.822 134.164 457.615 129.502 457.615 116.581C457.615 105.392 448.424 101.663 438.301 101.663H428.178ZM482.39 135.362C482.39 108.456 503.969 87.5436 530.342 87.5436C556.716 87.5436 578.294 108.456 578.294 135.362C578.294 162.269 556.716 183.181 530.342 183.181C503.969 183.181 482.39 162.269 482.39 135.362ZM495.444 135.362C495.444 154.41 511.162 171.193 530.342 171.193C549.523 171.193 565.241 154.41 565.241 135.362C565.241 116.315 549.523 99.5316 530.342 99.5316C511.162 99.5316 495.444 116.315 495.444 135.362ZM642.939 181.05L596.452 181.05V89.6748L609.506 87.5436V169.062H648.267L642.939 181.05ZM701.101 87.5436L713.621 91.4064L672.596 183.181L659.809 180.384L675.793 145.885L642.626 91.2732L655.413 87.5436L681.92 132.032L701.101 87.5436Z" fill="white"/>
<path d="M309.528 74.6145C310.349 74.0714 310.999 73.2229 311.547 72.4084C313.977 66.8085 317.502 61.9553 321.678 57.6111C330.098 48.7191 342.385 39.861 357.137 37.9944C358.574 38.0623 360.114 37.5532 361.415 38.1641L369.732 47.0222C370.143 47.3615 370.656 47.5312 370.759 48.0403C370.622 48.244 370.553 48.5154 370.348 48.6512C367.131 50.4839 363.537 51.4681 359.84 52.2148C351.592 53.742 343.651 56.3214 335.95 59.0704C325.511 63.0413 317.16 68.9467 311.033 76.3114L309.528 74.6145Z" fill="white"/>
<path d="M507.697 101.424C502.392 96.5711 497.224 91.5821 491.919 86.7288L490.824 85.7106L476.38 72.3387L471.007 67.3498C470.288 66.4334 468.953 66.1279 469.227 64.4989C469.432 64.0916 469.398 60.5959 468.645 59.5777C467.618 58.8311 468.2 56.9645 467.721 55.7427C467.55 54.5548 467.447 53.367 466.797 52.5185C466.112 51.0252 464.161 50.5161 462.792 49.4979C462.724 48.4119 462.245 47.6652 461.766 46.9864C459.678 44.984 455.707 45.3913 453.038 46.2058C451.84 46.4434 451.053 47.6991 449.821 47.4955C439.108 37.8908 428.874 27.9467 418.435 18.1384C417.956 17.799 417.819 17.1881 417.648 16.6112C417.1 14.6427 418.264 13.1494 419.564 12.1991C421.892 10.7058 424.014 12.8779 426.41 12.81C428.497 12.9118 430.243 11.7918 431.03 10.4003C431.064 10.0949 431.133 9.95914 431.27 9.75551C431.099 9.11067 431.475 8.80524 431.441 8.16041H431.509C431.509 7.14224 431.133 6.3616 430.927 5.41132C429.558 2.89984 426.341 1.33868 422.953 1.16899C420.488 0.76172 418.127 1.47442 415.97 2.18714C410.7 4.35922 407.619 8.36401 406.9 13.9639L406.832 13.9639C406.729 18.4778 407.859 22.0414 410.289 24.7225C420.283 34.2254 430.448 43.6943 440.442 53.333C441.058 54.5548 439.758 55.5051 439.758 56.8626L439.689 56.8626C439.484 58.4238 439.998 59.4081 440.203 60.7656C440.408 61.648 441.195 62.3607 440.922 63.3789C440.922 64.5328 439.073 63.7183 439.005 64.8722C437.294 66.094 435.993 67.723 434.316 68.9788C433.323 69.6236 432.844 68.4019 432.057 68.3C425.965 73.866 417.442 80.1447 409.639 84.4889C409.125 84.6586 408.543 85.0997 408.098 84.5907C407.551 83.4367 407.722 81.7738 407.448 80.4841C407.106 79.2623 407.14 77.735 405.976 77.1241C405.703 77.3277 405.634 77.735 405.566 78.2102C405.566 78.5496 405.395 78.7871 405.292 79.0247C404.436 81.5701 403.033 83.7083 400.363 84.998C399.953 85.0658 399.508 84.8282 399.405 84.4549C398.892 79.8732 398.275 75.4612 396.701 71.66C394.066 64.7704 390.232 58.6614 384.893 53.7063C383.9 52.3827 382.223 51.5342 380.991 50.3803C380.546 49.8033 379.69 49.5658 379.588 48.6495C380.478 47.7671 381.607 47.0543 382.668 46.3416C385.509 43.6604 388.555 41.115 389.308 36.9745C389.205 36.6012 389.069 36.2618 388.932 35.8545C388.487 35.2097 387.426 34.7006 386.296 34.9382C385.372 35.1757 384.961 35.7866 384.482 36.3975C382.737 40.0968 379.622 42.8459 376.097 45.3234C375.686 45.3913 375.173 45.6288 374.796 45.3913C373.187 44.2034 371.955 42.7101 370.244 41.6241C369.765 40.8774 368.943 40.4023 368.327 39.6557C366.205 36.9405 363.707 34.5309 361.79 31.68L361.55 31.103C358.162 27.2001 355.629 22.5844 353.302 17.9687C352.515 16.3057 351.625 14.8124 349.571 14.1336C343.753 12.6403 337.831 14.3712 332.492 15.6609C320.992 19.7335 311.135 26.3177 303.913 34.0218C301.38 36.6011 299.19 39.5199 297.307 42.5404C296.281 43.5586 295.973 44.9501 295.083 46.104C294.603 47.8009 293.611 49.0567 293.234 50.7876C292.447 52.3827 292.31 55.8445 293.269 57.3378C299.19 62.1911 304.426 67.6552 308.499 73.7981C308.807 74.1036 308.91 74.7484 309.56 74.5108C310.416 74.0017 311.032 73.1193 311.58 72.3048C314.01 66.7049 317.535 61.8516 321.711 57.5075C330.131 48.6155 342.384 39.7914 357.135 37.8568C358.573 37.9247 360.147 37.4496 361.448 37.9926C361.722 38.332 362.098 38.7054 361.824 39.1126C358.881 39.5878 355.869 39.9271 353.131 40.8774L353.131 41.0811C355.663 43.5926 358.162 46.1379 360.866 48.4797L361.55 48.8191C364.117 48.5137 366.548 47.801 368.875 46.8507H369.765C370.175 47.1901 370.689 47.3598 370.826 47.9028C370.655 48.0725 370.62 48.3779 370.415 48.5137C367.198 50.2785 363.57 51.3645 359.908 52.0772C351.625 53.5705 343.718 56.1839 336.017 58.8651C325.544 62.8698 317.261 68.7752 311.066 76.072C308.534 79.1265 307.062 82.758 306.035 86.8985H305.967C305.898 87.3058 305.864 87.6791 305.864 88.0863C305.316 94.6026 307.781 99.5577 313.017 102.239C314.866 103.257 317.022 103.427 319.144 103.902C319.52 104.411 319.999 104.818 319.999 105.565C319.76 105.667 319.418 105.802 319.144 105.667C302.578 102.409 286.526 96.605 272.664 88.0864C272.151 87.7809 271.637 87.4755 271.124 87.1021L270.337 86.8646C268.831 88.6294 267.565 86.0162 266.264 85.6089C265.34 85.1677 264.553 83.844 263.218 84.3531C262.465 84.2174 262.499 83.5047 262.02 83.1653C260.993 81.3326 259.316 80.0089 258.255 78.2101C258.084 76.5471 257.57 75.0199 257.878 73.2212H257.947C257.844 72.5085 258.118 71.5582 257.673 71.117C257.16 70.54 256.099 70.6418 255.346 70.7775C251.136 71.4224 249.185 74.6466 248.363 78.1083H248.295L248.227 78.9907L248.158 78.9908L248.124 80.4502L248.055 80.4501C248.192 80.7895 247.884 80.8913 247.679 81.095C242.921 82.9616 237.993 85.0658 233.646 87.6112C233.406 87.7809 233.167 87.9506 232.893 88.0864C226.938 91.9554 220.332 96.4014 218.86 103.291L218.792 103.291L218.723 104.309L218.586 104.309C218.655 105.327 219.066 106.345 218.758 107.398C218.723 107.499 218.792 107.703 218.586 107.703C218.792 108.178 218.313 108.382 218.586 108.789C218.518 110.961 221.633 110.791 222.043 112.624C223.139 113.71 224.918 112.828 226.185 112.454C233.783 108.042 242.203 104.988 251.307 103.766C253.018 103.63 255.072 103.427 256.715 103.902C257.947 105.192 260.035 105.836 261.164 107.228C261.13 108.416 260.822 109.4 260.514 110.384C260.514 110.724 260.274 110.961 260.24 111.267C260.172 111.674 260.274 111.979 260.617 112.183C272.356 119.344 286.047 123.349 300.114 125.894C309.903 127.659 320.136 128.168 330.439 128.677L330.952 128.915L330.781 129.152C329.343 129.628 327.735 129.729 326.331 130.238C326.023 137.603 323.559 153.011 322.156 159.358C328.317 168.114 338.516 173.884 350.119 173.85C357.854 173.85 364.425 171.949 370.175 167.605L370.894 166.146C377.363 156.202 390.301 132.512 392.423 118.801C392.525 118.292 392.628 117.715 393.141 117.545C393.141 117.545 394.716 117.002 393.723 117.376C405.805 113.269 425.041 106.821 447.39 89.2743C447.425 88.5615 446.911 88.3239 446.637 87.713C446.637 87.3058 446.774 86.9664 446.945 86.6609C447.356 86.1179 448.075 85.7446 448.451 85.1676C449.752 83.9458 451.292 82.6901 452.182 81.4004C451.908 80.5859 452.661 80.3144 452.969 79.7374C454.646 78.1423 456.221 76.3096 458.993 75.5969C460.362 75.1896 461.766 72.8478 463.203 74.6805C467.481 78.7871 471.965 82.6901 476.38 86.6609C479.118 89.1045 481.788 91.616 484.389 94.1953C489.9 98.9128 495.034 103.868 500.305 108.755C501.229 109.332 501.742 110.791 503.351 110.282C506.294 109.128 508.382 107.194 509.032 104.309L509.101 104.309C509.546 102.85 508.382 102.375 507.697 101.424Z" fill="black"/>
<path d="M427.986 7.11035C428.259 7.65338 428.225 8.29821 428.259 9.01092C427.746 9.85939 426.548 10.097 425.521 9.96123C423.16 8.29823 419.429 8.19638 416.965 9.82545C416.314 10.606 415.185 11.1151 415.014 12.1672C414.877 12.4387 414.603 12.5745 414.671 13.0496C414.569 13.2872 414.329 13.5248 414.329 13.7963C414.055 15.0181 413.987 17.3938 414.877 18.412C415.185 19.3283 415.972 19.7695 416.314 20.5841C418.163 22.824 420.456 24.6907 422.68 26.6931L427.13 30.8336C428.225 32.0554 429.56 33.3112 430.826 34.4311C435.926 39.488 441.437 44.2734 446.536 49.3982C446.879 50.4163 445.099 50.3484 444.414 50.8236C444.004 51.0951 443.524 51.2987 443.079 51.1969C441.779 50.3824 440.821 49.2285 439.725 48.2782C430.963 39.7256 421.722 31.5803 412.892 23.0955C410.975 21.3986 410.154 18.955 409.777 16.2059L409.674 14.2036H409.743L409.811 13.389L409.88 13.389C410.838 9.2485 413.234 5.78676 417.957 4.56497C421.619 3.92013 425.795 4.66676 427.986 7.11035Z" fill="white"/>
<path d="M338.107 19.0561C340.845 25.5724 344.884 31.2062 349.128 36.7043C349.333 36.8401 349.196 37.2473 349.23 37.5528C346.389 38.6049 343.412 39.5891 340.605 40.8788C336.087 42.983 332.322 45.4945 328.557 48.0738C327.086 48.0399 326.846 46.5126 325.956 45.766C322.02 40.9806 317.502 36.5685 313.019 32.1904C312.984 31.8171 312.848 31.6814 312.848 31.2741C315.517 28.3554 319.385 26.2851 323.013 24.0452C327.223 21.7034 331.775 19.5652 336.532 18.3095C337.388 18.1398 337.867 18.547 338.107 19.0561Z" fill="black"/>
<path d="M460.394 49.6305C460.976 50.2754 460.839 51.4971 461.25 52.3116C462.105 52.7528 463.406 52.6171 464.193 53.3298C465.288 54.2122 465.391 55.6716 465.631 57.0631C465.254 57.3686 465.836 57.5382 465.631 57.9455V58.8958L465.562 58.8958C465.391 59.1334 465.631 59.5746 465.323 59.7442C466.041 60.7964 466.521 61.9503 466.281 63.6812H466.213C465.905 66.9732 463.885 69.4508 461.01 70.8762C460.326 70.8762 459.402 71.3853 458.888 70.8762C459.059 70.2314 459.299 69.3829 459.778 68.9756C461.832 66.9393 462.379 64.2921 462.379 62.7309C462.345 62.4933 461.797 61.6109 461.558 61.5091C461.01 62.8666 460.12 64.2921 458.546 66.4642C457.622 67.7199 456.526 68.8059 454.815 69.4168C454.028 69.5865 453.275 69.2471 452.933 68.772C452.625 68.3308 452.693 67.7199 452.693 67.109C453.891 65.7854 455.431 64.5975 456.184 62.9006C457.861 60.7624 458.067 58.0473 458.238 57.131C458.204 56.9613 457.656 56.8934 457.382 57.0292C455.671 58.8619 454.439 61.9842 452.18 63.2739C451.666 63.3757 451.119 63.3079 450.913 62.9685C450.708 62.4255 450.332 61.577 450.537 60.9661V60.423C450.64 60.1855 450.845 59.9139 450.811 59.6085C451.016 58.7261 451.632 58.1831 451.94 57.4025C451.735 56.9274 452.248 57.0292 452.385 56.8255C453.617 55.4001 455.226 54.2801 455.705 52.2438L455.774 52.2438C455.876 51.1917 455.397 50.2414 454.952 49.3929C454.849 48.4087 456.184 48.6463 456.835 48.273C458.375 47.8317 459.71 48.6802 460.394 49.6305Z" fill="white"/>
<path d="M298.816 51.0975C303.95 55.2381 308.091 60.0235 311.993 65.0464C312.096 65.284 312.164 65.4876 312.13 65.7931C312.027 66.0985 311.719 66.404 311.685 66.7773C311.24 67.2864 311.001 67.9312 310.59 68.4063C309.905 68.6778 309.632 67.9991 309.289 67.7275C305.798 63.1797 301.588 59.0053 297.242 55.1023C296.762 54.8308 297.036 54.0841 297.002 53.5751L297.07 53.5751C297.173 52.6588 297.584 52.1157 297.858 51.3691C297.926 51.0975 298.474 50.7581 298.816 51.0975Z" fill="black"/>
<path d="M377.536 52.1815C378.083 52.5888 378.802 52.9621 378.905 53.7427C377.775 54.5233 375.79 54.7948 376.201 56.6954C376.406 57.0348 376.749 57.3063 377.228 57.4421C378.015 57.476 378.46 56.8312 379.144 56.5596C383.217 55.9148 385.1 59.3427 386.811 61.5147C388.557 64.1959 390.371 66.6734 391.5 69.8297C392.185 70.9158 392.63 72.2394 393.006 73.563C393.725 74.7508 393.862 76.3799 394.307 77.7714C394.546 79.1629 394.854 80.4865 394.991 81.9798C394.752 83.4392 395.539 84.3556 395.265 85.9168C394.923 86.7992 393.725 86.2901 392.903 86.358C389.515 85.6453 386.229 84.4913 382.396 84.8307C381.403 84.1859 381.54 82.8283 380.822 82.0477C379.897 80.6562 378.871 79.2308 376.886 78.4842C375.756 78.4502 374.592 78.7896 373.531 79.095C373.463 79.2308 373.36 79.6041 373.6 79.638C375.414 81.0974 377.502 82.421 377.365 85.2719C377.228 85.2719 377.194 85.4416 377.194 85.5095C377.125 87.0028 375.003 87.2065 374.045 88.0889C373.942 88.8695 374.25 89.3785 374.558 89.8197C375.996 91.313 378.015 89.9216 379.555 89.4125C381.848 86.7313 386.914 87.3422 390.131 88.3604C394.889 90.5664 400.81 88.9034 404.267 85.8828C404.643 85.5774 404.746 86.0865 404.78 86.324V86.9349C404.883 87.7155 404.301 88.0209 404.335 88.7337C404.232 89.0391 404.027 89.3106 404.027 89.5821C401.871 95.182 397.353 99.7977 390.165 101.087C386.88 101.495 383.594 101.02 380.822 99.5602C380.24 99.4583 380.308 99.9335 380.069 100.171C378.049 104.549 374.592 107.977 369.766 110.387C363.777 113.136 354.604 112.661 350.018 108.316C349.915 107.943 350.189 107.875 350.292 107.638C354.981 108.35 359.225 105.703 361.073 102.581C362.202 100.918 362.921 98.9832 364.324 97.5238C366.412 95.4535 368.877 93.3493 372.265 92.433C372.744 92.1615 372.915 91.7882 372.915 91.1773C372.744 90.6682 372.505 90.227 371.854 89.9894C366.857 89.7179 363.606 93.2815 361.107 96.0305C360.491 96.913 359.943 97.7953 359.396 98.7456L359.396 99.0171C359.293 99.3226 358.951 99.5941 358.951 99.9335C358.711 100.035 358.78 100.239 358.711 100.443C357.89 102.479 355.802 103.938 353.338 104.549C349.402 105.262 345.5 103.022 343.583 100.578C343.001 100.069 343.036 98.9493 341.975 98.9832C341.872 100.986 342.83 102.411 343.481 104.074C345.945 110.319 353.201 114.867 361.484 115.138C365.865 115.274 369.835 114.188 373.292 112.185C375.996 110.93 378.049 109.165 379.829 107.129C381.095 106.28 382.909 107.807 383.594 106.178C384.278 105.567 384.415 104.549 385.476 104.176C387.496 104.21 389.652 104.244 391.603 103.938C391.979 104.04 392.014 104.346 391.979 104.787H391.911C387.838 113.781 377.262 121.213 364.598 120.534C353.303 120.195 343.617 114.052 337.183 107.468C336.635 106.857 336.635 105.839 336.293 105.024C335.437 104.108 335.129 105.567 334.41 105.805C331.98 107.4 327.839 107.23 325.409 105.499C323.321 103.836 321.37 101.834 322.02 98.542C322.157 98.6099 322.123 98.4402 322.123 98.3044C322.602 96.6754 324.074 95.5554 325.991 95.0803C326.573 94.9784 327.326 94.8426 327.531 94.2996C327.531 93.3493 326.675 92.976 325.922 92.6367C324.656 91.8561 322.568 93.7906 322.397 91.7203C322.226 91.1433 322.123 90.4985 322.02 89.7179L321.986 88.3942L322.055 87.5797H322.123C322.534 85.9507 322.945 84.3895 323.629 82.9641C324.861 80.7241 326.367 78.6199 328.044 76.6175C331.022 73.3933 334.684 70.5085 338.552 67.8273C341.906 65.4516 346.15 63.4832 350.12 61.7862C346.082 61.7183 342.727 63.6189 339.236 65.0444C329.037 70.0673 320.823 76.3799 316.442 85.4756C314.833 88.2246 314.32 93.6888 316.373 96.4718L317.4 97.965C317.605 98.1687 317.503 98.6099 317.503 99.0171C316.544 99.628 315.38 98.6778 314.525 98.2365C311.068 96.1663 309.904 91.7543 310.794 87.3422C312.505 81.0296 316.715 76.4478 321.61 72.4091C328.352 66.6734 337.765 62.0238 347.211 59.3087C354.946 56.3899 363.64 55.779 371.341 52.6227C372.847 52.2833 374.045 50.9597 375.688 51.0955L377.536 52.1815Z" fill="white"/>
<path d="M452.767 51.775C452.87 52.4199 452.494 52.8611 452.22 53.2683C451.296 54.2526 450.2 55.0671 449.276 56.1192L449.276 56.3907C449.174 56.6961 449.105 57.0355 448.831 57.2392C447.462 59.1397 447.394 62.9409 448.626 65.0451C449.174 65.7239 449.242 66.6742 449.858 67.2851C449.824 69.8305 451.159 71.4256 453.863 71.7311C454.581 72.3759 455.3 73.0886 456.019 73.7335C456.019 74.2086 455.608 74.2765 455.266 74.548C453.623 75.091 452.425 76.211 451.433 77.331C451.022 77.5346 450.508 77.9758 450.029 77.6365C448.078 75.3625 446.641 72.7832 444.69 70.5093C444.074 69.4911 443.287 68.7105 442.739 67.6924L442.739 67.4208C443.013 67.1493 443.047 66.7081 443.389 66.4366C443.903 65.5881 444.279 64.6039 444.108 63.2124C443.252 61.8209 442.226 60.667 442.328 58.5289V57.4428C442.842 55.3725 444.313 54.1168 445.991 52.8611C447.805 51.5374 450.235 51.5714 452.494 51.4357L452.767 51.775Z" fill="white"/>
<path d="M468.404 69.4542C476.687 76.7849 484.594 84.4212 492.808 91.8198C496.676 95.7228 501.022 99.3543 504.89 103.257C505.095 103.8 505.917 103.936 505.643 104.954C505.198 105.735 504.719 106.617 503.658 106.923C502.699 106.923 502.22 106.244 501.707 105.803C498.216 102.612 495.033 99.4561 491.576 96.0961C488.393 93.2792 485.312 90.4962 482.266 87.6114C476.653 82.5206 471.108 77.3619 465.598 72.1693C464.776 71.3547 466.111 70.9814 466.317 70.3705C467.035 70.065 467.309 68.9111 468.404 69.4542Z" fill="white"/>
<path d="M440.512 71.2529C442.052 73.391 443.626 75.4952 445.201 77.6673C445.782 77.9049 445.782 78.38 445.919 78.8552C446.364 79.9073 447.425 80.4842 447.357 81.8418C446.809 82.6563 446.125 83.403 445.201 83.9799C443.626 84.1836 443.489 82.5545 442.702 81.8418C440.58 78.6515 438.218 75.631 435.925 72.6104C435.72 72.4068 435.857 71.9995 435.823 71.6941C436.644 70.9474 437.431 70.1668 438.458 69.5559C439.622 69.5559 439.964 70.5741 440.512 71.2529Z" fill="white"/>
<path d="M254.831 75.2907C254.865 75.3926 254.763 75.5622 254.865 75.5962C255.105 77.5986 255.652 79.2955 256.2 81.1961C257.706 83.5718 259.417 85.8118 260.444 88.5269C260.547 88.9681 260.786 89.3414 260.889 89.7826C260.752 89.7826 260.752 89.9184 260.786 90.0202C259.554 93.0747 258.254 95.9934 257.158 99.0479L256.508 99.4891C247.507 99.5909 239.669 102.544 232.07 106.005C229.503 107.193 227.313 108.687 224.814 109.942C223.788 109.874 223.103 109.06 222.247 108.619C222.008 108.381 221.837 108.008 221.837 107.533C221.426 105.768 221.802 103.63 222.042 101.899C222.453 101.559 222.555 100.982 222.829 100.507C225.157 97.7922 228.34 95.5862 231.42 93.3462C235.938 90.2238 241.38 87.339 246.993 85.5063C247.609 85.5063 247.712 85.8796 247.849 86.3548C247.712 86.8299 247.986 86.9657 247.986 87.373C248.499 89.2396 249.321 90.7329 250.553 92.0226C250.758 92.362 251.271 92.3959 251.648 92.2941C252.059 92.0226 252.093 91.5814 252.127 91.0045C251.887 90.9026 252.093 90.6311 251.956 90.4954C250.861 88.459 250.792 84.7936 251.477 82.4858C251.203 79.5671 251.922 76.9537 253.702 75.3247C253.873 75.0192 254.797 74.7817 254.831 75.2907Z" fill="white"/>
<path d="M267.637 91.2464V91.7894L267.568 91.7894C265.686 95.4208 264.214 99.256 262.742 103.227C261.818 103.736 261.031 102.82 260.449 102.446C260.038 102.175 260.209 101.53 260.175 101.021C260.278 100.783 260.483 100.512 260.517 100.274C261.886 96.6766 263.29 93.1809 264.933 89.8549C265.925 89.2101 266.815 90.4319 267.568 90.7713L267.637 91.2464Z" fill="white"/>
<path d="M235.971 93.8552C236.142 94.1607 236.073 94.5001 236.039 94.8734C234.465 96.0952 232.582 97.1473 230.974 98.3352C228.544 100.134 226.148 102.102 223.649 103.765C226.695 99.8624 230.871 96.6721 235.012 93.5158C235.423 93.0407 235.834 93.5837 235.971 93.8552Z" fill="black"/>
<path d="M237.819 98.8767C238.367 100.37 236.724 100.37 236.005 100.947C232.274 102.61 229.262 104.646 225.771 106.411V106.004C228.954 102.983 232.685 100.37 236.963 98.0961C237.511 97.9603 237.648 98.5712 237.819 98.8767Z" fill="black"/>
<path d="M339.679 151.349C339.474 152.232 339.884 152.639 340.09 153.25C342.143 155.218 344.128 157.255 346.627 158.986C347.174 159.257 347.722 159.732 348.509 159.698C351.932 158.205 355.32 156.474 358.503 154.743L359.188 154.743C361.995 156.848 364.322 159.291 367.471 161.192C367.813 161.463 368.429 161.463 368.703 161.192C371.065 157.832 373.255 154.302 375.24 150.637C376.986 147.277 379.039 144.019 380.477 140.421C380.751 140.285 380.785 139.912 380.888 139.674C381.264 138.622 381.846 137.842 382.222 136.79C382.394 136.416 382.393 135.941 382.667 135.67C383.523 133.396 384.447 131.258 385.166 128.916C386.466 125.59 387.322 121.89 388.212 118.225H388.28C388.246 117.648 388.52 116.494 387.63 116.901C383.455 119.888 378.457 122.807 372.844 123.689C361.995 125.624 351.316 122.841 343.102 117.343L342.622 117.343C342.006 117.614 342.143 118.429 342.314 119.345C342.965 128.543 343.341 134.821 339.679 151.349Z" fill="white"/>
<path d="M427.986 7.11035C428.259 7.65338 428.225 8.29821 428.259 9.01092C427.746 9.85939 426.548 10.097 425.521 9.96123C423.16 8.29823 419.429 8.19638 416.965 9.82545C416.314 10.606 415.185 11.1151 415.014 12.1672C414.877 12.4387 414.603 12.5745 414.671 13.0496C414.569 13.2872 414.329 13.5248 414.329 13.7963C414.055 15.0181 413.987 17.3938 414.877 18.412C415.185 19.3283 415.972 19.7695 416.314 20.5841C418.163 22.824 420.456 24.6907 422.68 26.6931L427.13 30.8336C428.225 32.0554 429.56 33.3112 430.826 34.4311C435.926 39.488 441.437 44.2734 446.536 49.3982C446.879 50.4163 445.099 50.3484 444.414 50.8236C444.004 51.0951 443.524 51.2987 443.079 51.1969C441.779 50.3824 440.821 49.2285 439.725 48.2782C430.963 39.7256 421.722 31.5803 412.892 23.0955C410.975 21.3986 410.154 18.955 409.777 16.2059L409.674 14.2036H409.743L409.811 13.389L409.88 13.389C410.838 9.2485 413.234 5.78676 417.957 4.56497C421.619 3.92013 425.795 4.66676 427.986 7.11035Z" fill="white"/>
<path d="M460.394 49.6305C460.976 50.2754 460.839 51.4971 461.25 52.3116C462.105 52.7528 463.406 52.6171 464.193 53.3298C465.288 54.2122 465.391 55.6716 465.631 57.0631C465.254 57.3686 465.836 57.5382 465.631 57.9455V58.8958L465.562 58.8958C465.391 59.1334 465.631 59.5746 465.323 59.7442C466.041 60.7964 466.521 61.9503 466.281 63.6812H466.213C465.905 66.9732 463.646 68.7389 460.737 70.1982C460.053 70.1982 459.368 70.7413 458.82 70.1982C458.992 69.5534 460.258 69.1122 460.532 68.5692C461.524 67.1098 462.072 64.9377 462.517 63.0032C462.448 62.7996 461.969 62.3923 461.73 62.2905C460.258 63.1389 459.676 65.4128 458.512 66.4989C457.417 67.5849 456.493 68.8406 454.782 69.4515C453.995 69.6212 453.242 69.2819 452.899 68.8067C452.591 68.3655 452.66 67.7546 452.66 67.1437C453.858 65.8201 455.398 64.6322 456.151 62.9353C456.664 62.4262 457.349 62.0868 457.486 61.2723C458.102 60.7293 457.862 59.4735 457.931 58.5911C457.896 58.4214 457.075 57.4033 456.87 57.539C455.158 59.3717 454.405 62.019 452.112 63.2747C451.599 63.3765 451.051 63.3086 450.846 62.9692C450.64 62.4262 450.264 61.5778 450.469 60.9669V60.4238C450.572 60.1863 450.777 59.9148 450.743 59.6093C450.948 58.7269 452.215 57.0639 452.317 56.8263C453.55 55.4009 455.158 54.2809 455.637 52.2446L455.705 52.2438C455.808 51.1917 455.329 50.2422 454.884 49.3937C454.782 48.4095 456.117 48.647 456.767 48.2737C458.376 47.8325 459.71 48.6802 460.394 49.6305Z" fill="white"/>
<path d="M377.536 52.1815C378.083 52.5888 378.802 52.9621 378.905 53.7427C377.775 54.5233 375.79 54.7948 376.201 56.6954C376.406 57.0348 376.749 57.3063 377.228 57.4421C378.015 57.476 378.46 56.8312 379.144 56.5596C383.217 55.9148 385.1 59.3427 386.811 61.5147C388.557 64.1959 390.371 66.6734 391.5 69.8297C392.185 70.9158 392.63 72.2394 393.006 73.563C393.725 74.7508 393.862 76.3799 394.307 77.7714C394.546 79.1629 394.854 80.4865 394.991 81.9798C394.752 83.4392 395.539 84.3556 395.265 85.9168C394.923 86.7992 393.725 86.2901 392.903 86.358C389.515 85.6453 386.229 84.4913 382.396 84.8307C381.403 84.1859 381.54 82.8283 380.822 82.0477C379.897 80.6562 378.871 79.2308 376.886 78.4842C375.756 78.4502 374.592 78.7896 373.531 79.095C373.463 79.2308 373.36 79.6041 373.6 79.638C375.414 81.0974 377.502 82.421 377.365 85.2719C377.228 85.2719 377.194 85.4416 377.194 85.5095C377.125 87.0028 375.003 87.2065 374.045 88.0889C373.942 88.8695 374.25 89.3785 374.558 89.8197C375.996 91.313 378.015 89.9216 379.555 89.4125C381.848 86.7313 386.914 87.3422 390.131 88.3604C394.889 90.5664 400.81 88.9034 404.267 85.8828C404.643 85.5774 404.746 86.0865 404.78 86.324V86.9349C404.883 87.7155 404.301 88.0209 404.335 88.7337C404.232 89.0391 404.027 89.3106 404.027 89.5821C401.871 95.182 397.353 99.7977 390.165 101.087C386.88 101.495 383.594 101.02 380.822 99.5602C380.24 99.4583 380.308 99.9335 380.069 100.171C378.049 104.549 374.592 107.977 369.766 110.387C363.777 113.136 354.604 112.661 350.018 108.316C349.915 107.943 350.189 107.875 350.292 107.638C354.981 108.35 359.225 105.703 361.073 102.581C362.202 100.918 362.921 98.9832 364.324 97.5238C366.412 95.4535 368.877 93.3493 372.265 92.433C372.744 92.1615 372.915 91.7882 372.915 91.1773C372.744 90.6682 372.505 90.227 371.854 89.9894C366.857 89.7179 363.606 93.2815 361.107 96.0305C360.491 96.913 359.943 97.7953 359.396 98.7456L359.396 99.0171C359.293 99.3226 358.951 99.5941 358.951 99.9335C358.711 100.035 358.78 100.239 358.711 100.443C357.89 102.479 355.802 103.938 353.338 104.549C349.402 105.262 345.5 103.022 343.583 100.578C343.001 100.069 343.036 98.9493 341.975 98.9832C341.872 100.986 342.83 102.411 343.481 104.074C345.945 110.319 353.201 114.867 361.484 115.138C365.865 115.274 369.835 114.188 373.292 112.185C375.996 110.93 378.049 109.165 379.829 107.129C381.095 106.28 382.909 107.807 383.594 106.178C384.278 105.567 384.415 104.549 385.476 104.176C387.496 104.21 389.652 104.244 391.603 103.938C391.979 104.04 392.014 104.346 391.979 104.787H391.911C387.838 113.781 377.262 121.213 364.598 120.534C353.303 120.195 343.617 114.052 337.183 107.468C336.635 106.857 336.635 105.839 336.293 105.024C335.437 104.108 335.129 105.567 334.41 105.805C331.98 107.4 327.839 107.23 325.409 105.499C323.321 103.836 321.37 101.834 322.02 98.542C322.157 98.6099 322.123 98.4402 322.123 98.3044C322.602 96.6754 324.074 95.5554 325.991 95.0803C326.573 94.9784 327.326 94.8426 327.531 94.2996C327.531 93.3493 326.675 92.976 325.922 92.6367C324.656 91.8561 322.568 93.7906 322.397 91.7203C322.226 91.1433 322.123 90.4985 322.02 89.7179L321.986 88.3942L322.055 87.5797H322.123C322.534 85.9507 322.945 84.3895 323.629 82.9641C324.861 80.7241 326.367 78.6199 328.044 76.6175C331.022 73.3933 334.684 70.5085 338.552 67.8273C341.906 65.4516 346.15 63.4832 350.12 61.7862C346.082 61.7183 342.727 63.6189 339.236 65.0444C329.037 70.0673 320.823 76.3799 316.442 85.4756C314.833 88.2246 314.32 93.6888 316.373 96.4718L317.4 97.965C317.605 98.1687 317.503 98.6099 317.503 99.0171C316.544 99.628 315.38 98.6778 314.525 98.2365C311.068 96.1663 309.904 91.7543 310.794 87.3422C312.505 81.0296 316.715 76.4478 321.61 72.4091C328.352 66.6734 337.765 62.0238 347.211 59.3087C354.946 56.3899 363.64 55.779 371.341 52.6227C372.847 52.2833 374.045 50.9597 375.688 51.0955L377.536 52.1815Z" fill="white"/>
<path d="M452.767 51.775C452.87 52.4199 452.494 52.8611 452.22 53.2683C451.296 54.2526 450.2 55.0671 449.276 56.1192L449.276 56.3907C449.174 56.6961 449.105 57.0355 448.831 57.2392C447.462 59.1397 447.394 62.9409 448.626 65.0451C449.174 65.7239 449.242 66.6742 449.858 67.2851C450.098 69.559 451.467 71.1202 453.863 71.7311C454.581 72.3759 455.3 73.0886 456.019 73.7335C456.019 74.2086 455.608 74.2765 455.266 74.548C453.623 75.091 452.425 76.211 451.433 77.331C451.022 77.5346 450.508 77.9758 450.029 77.6365C448.078 75.3625 446.641 72.7832 444.69 70.5093C444.074 69.4911 443.287 68.7105 442.739 67.6924L442.739 67.4208C443.013 67.1493 443.047 66.7081 443.389 66.4366C443.903 65.5881 444.279 64.6039 444.108 63.2124C443.252 61.8209 442.226 60.667 442.328 58.5289V57.4428C442.842 55.3725 444.313 54.1168 445.991 52.8611C447.805 51.5374 450.235 51.5714 452.494 51.4357L452.767 51.775Z" fill="white"/>
<path d="M468.404 69.4542C476.687 76.7849 484.594 84.4212 492.808 91.8198C496.676 95.7228 501.022 99.3543 504.89 103.257C505.095 103.8 505.917 103.936 505.643 104.954C505.198 105.735 504.719 106.617 503.658 106.923C502.699 106.923 502.22 106.244 501.707 105.803C498.216 102.612 495.033 99.4561 491.576 96.0961C488.393 93.2792 485.312 90.4962 482.266 87.6114C476.653 82.5206 471.108 77.3619 465.598 72.1693C464.776 71.3547 466.111 70.9814 466.317 70.3705C467.035 70.065 467.309 68.9111 468.404 69.4542Z" fill="white"/>
<path d="M440.512 71.2529C442.052 73.391 443.626 75.4952 445.201 77.6673C445.782 77.9049 445.782 78.38 445.919 78.8552C446.364 79.9073 447.425 80.4842 447.357 81.8418C446.809 82.6563 446.125 83.403 445.201 83.9799C443.626 84.1836 443.489 82.5545 442.702 81.8418C440.58 78.6515 438.218 75.631 435.925 72.6104C435.72 72.4068 435.857 71.9995 435.823 71.6941C436.644 70.9474 437.431 70.1668 438.458 69.5559C439.622 69.5559 439.964 70.5741 440.512 71.2529Z" fill="white"/>
<path d="M254.831 75.2907C254.865 75.3926 254.763 75.5622 254.865 75.5962C255.105 77.5986 255.652 79.2955 256.2 81.1961C257.706 83.5718 259.417 85.8118 260.444 88.5269C260.547 88.9681 260.786 89.3414 260.889 89.7826C260.752 89.7826 260.752 89.9184 260.786 90.0202C259.554 93.0747 258.254 95.9934 257.158 99.0479L256.508 99.4891C247.507 99.5909 239.669 102.544 232.07 106.005C229.503 107.193 227.313 108.687 224.814 109.942C223.788 109.874 223.103 109.06 222.247 108.619C222.008 108.381 221.837 108.008 221.837 107.533C221.426 105.768 221.802 103.63 222.042 101.899C222.453 101.559 222.555 100.982 222.829 100.507C225.157 97.7922 228.34 95.5862 231.42 93.3462C235.938 90.2238 241.38 87.339 246.993 85.5063C247.609 85.5063 247.712 85.8796 247.849 86.3548C247.712 86.8299 247.986 86.9657 247.986 87.373C248.499 89.2396 249.321 90.7329 250.553 92.0226C250.758 92.362 251.271 92.3959 251.648 92.2941C252.059 92.0226 252.093 91.5814 252.127 91.0045C251.887 90.9026 252.093 90.6311 251.956 90.4954C250.861 88.459 250.792 84.7936 251.477 82.4858C251.203 79.5671 251.922 76.9537 253.702 75.3247C253.873 75.0192 254.797 74.7817 254.831 75.2907Z" fill="white"/>
<path d="M267.637 91.2464V91.7894L267.568 91.7894C265.686 95.4208 264.214 99.256 262.742 103.227C261.818 103.736 261.031 102.82 260.449 102.446C260.038 102.175 260.209 101.53 260.175 101.021C260.278 100.783 260.483 100.512 260.517 100.274C261.886 96.6766 263.29 93.1809 264.933 89.8549C265.925 89.2101 266.815 90.4319 267.568 90.7713L267.637 91.2464Z" fill="white"/>
<path d="M235.971 93.8552C236.142 94.1607 236.073 94.5001 236.039 94.8734C234.465 96.0952 232.582 97.1473 230.974 98.3352C228.544 100.134 226.148 102.102 223.649 103.765C226.695 99.8624 230.871 96.6721 235.012 93.5158C235.423 93.0407 235.834 93.5837 235.971 93.8552Z" fill="black"/>
<path d="M237.819 98.8767C238.367 100.37 236.724 100.37 236.005 100.947C232.274 102.61 229.262 104.646 225.771 106.411V106.004C228.954 102.983 232.685 100.37 236.963 98.0961C237.511 97.9603 237.648 98.5712 237.819 98.8767Z" fill="black"/>
<path d="M339.679 151.349C339.474 152.232 339.884 152.639 340.09 153.25C342.143 155.218 344.128 157.255 346.627 158.986C347.174 159.257 347.722 159.732 348.509 159.698C351.932 158.205 355.32 156.474 358.503 154.743L359.188 154.743C361.995 156.848 364.322 159.291 367.471 161.192C367.813 161.463 368.429 161.463 368.703 161.192C371.065 157.832 373.255 154.302 375.24 150.637C376.986 147.277 379.039 144.019 380.477 140.421C380.751 140.285 380.785 139.912 380.888 139.674C381.264 138.622 381.846 137.842 382.222 136.79C382.394 136.416 382.393 135.941 382.667 135.67C383.523 133.396 384.447 131.258 385.166 128.916C386.466 125.59 387.322 121.89 388.212 118.225H388.28C388.246 117.648 388.52 116.494 387.63 116.901C383.455 119.888 378.457 122.807 372.844 123.689C361.995 125.624 351.316 122.841 343.102 117.343L342.622 117.343C342.006 117.614 342.143 118.429 342.314 119.345C342.965 128.543 343.341 134.821 339.679 151.349Z" fill="white"/>
<path d="M363.124 141.607C364.253 141.981 365.657 140.929 366.239 139.266C366.786 137.637 366.341 135.974 365.178 135.566C364.014 135.159 362.645 136.245 362.063 137.84C361.515 139.537 361.96 141.2 363.124 141.607Z" fill="black"/>
<path d="M359.393 150.058C360.523 150.432 361.926 149.448 362.508 147.717C363.055 146.088 362.611 144.425 361.447 144.017C360.317 143.644 358.948 144.662 358.366 146.325C357.75 148.022 358.195 149.685 359.393 150.058Z" fill="black"/>
<path d="M354.327 124.399L352.376 136.244L367.128 129.693L377.327 136.481L382.496 122.464L379.039 124.06L376.164 131.73L367.504 126.333L356.655 131.119L357.168 125.451L354.327 124.399Z" fill="black"/>
<path d="M338.107 19.0561C340.845 25.5724 344.884 31.2062 349.128 36.7043C349.333 36.8401 349.196 37.2473 349.23 37.5528C346.389 38.6049 343.412 39.5891 340.605 40.8788C336.087 42.983 332.322 45.4945 328.557 48.0738C327.086 48.0399 326.846 46.5126 325.956 45.766C322.02 40.9806 317.502 36.5685 313.019 32.1904C312.984 31.8171 312.848 31.6814 312.848 31.2741C315.517 28.3554 319.385 26.2851 323.013 24.0452C327.223 21.7034 331.775 19.5652 336.532 18.3095C337.388 18.1398 337.867 18.547 338.107 19.0561Z" fill="white"/>
<path d="M298.816 51.0975C303.95 55.2381 308.091 60.0235 311.993 65.0464C312.096 65.284 312.164 65.4876 312.13 65.7931C312.027 66.0985 311.719 66.404 311.685 66.7773C311.24 67.2864 311.001 67.9312 310.59 68.4063C309.905 68.6778 309.632 67.9991 309.289 67.7275C305.798 63.1797 301.588 59.0053 297.242 55.1023C296.762 54.8308 297.036 54.0841 297.002 53.5751L297.07 53.5751C297.173 52.6588 297.584 52.1157 297.858 51.3691C297.926 51.0975 298.474 50.7581 298.816 51.0975Z" fill="white"/>
<path d="M332.186 54.3202C332.802 55.4741 333.486 56.5602 333.931 57.748L333.794 58.0874C327.291 60.6667 321.678 64.2642 316.681 67.9975H316.613C316.613 67.4545 317.092 67.1151 317.331 66.6739C320.788 61.2777 325.34 56.6959 330.611 52.5554C331.467 52.8608 331.672 53.7432 332.186 54.3202Z" fill="black"/>
<path d="M353.3 64.6685C353.539 64.7703 353.3 65.1436 353.573 65.2794C353.539 65.7885 353.197 66.1278 352.923 66.4672C351.657 66.1618 349.603 65.7545 348.645 66.8406C347.241 68.0963 346.215 69.5896 345.77 71.4562C345.633 71.4562 345.701 71.6599 345.667 71.7617C345.701 72.5423 345.119 72.9835 345.393 73.7301C345.462 73.8659 345.291 74.1713 345.564 74.2392C345.256 74.2731 345.599 74.8841 345.154 74.6465C344.64 74.0695 344.401 73.3568 344.469 72.4744C344.332 71.9993 344.503 71.2866 344.264 70.8454C344.538 70.506 344.401 69.9629 344.435 69.5217L344.503 69.5217C344.777 67.3497 345.975 65.8903 347.378 64.4988C348.919 63.3109 352.204 62.9036 353.3 64.6685Z" fill="black"/>
<path d="M386.569 67.4507C386.979 67.7901 386.808 68.5707 386.843 69.2155C386.363 69.8264 385.85 70.4034 385.028 70.6749C384.241 70.8446 383.454 70.7428 382.906 70.3355C382.427 69.7246 381.88 69.1816 381.948 68.2313H382.017C382.085 67.3489 382.598 66.9077 383.214 66.4326C383.728 66.195 384.447 65.8895 385.063 66.1611C385.679 66.4326 386.192 67.0095 386.569 67.4507Z" fill="black"/>
<path d="M359.049 79.3967L359.151 80.7882C358.912 80.9579 358.912 81.0936 358.912 81.3652C358.501 81.9761 357.885 82.5191 357.029 82.7567C355.694 82.9942 354.668 82.2476 353.778 81.6367C353.572 80.89 353.059 80.4488 353.264 79.4306C353.435 79.1252 353.538 78.8876 353.641 78.5822C354.086 77.8695 355.044 77.3943 356.071 77.3264C357.543 77.2925 358.706 78.2428 359.049 79.3967Z" fill="black"/>
<path d="M331.809 83.5411C330.405 84.729 328.489 85.4756 326.983 86.5617C326.058 86.7314 326.024 85.8829 325.614 85.5435V85.272C327.051 84.186 328.728 83.066 330.611 82.3533C331.261 82.523 331.535 83.1338 331.809 83.5411Z" fill="black"/>
<path d="M333.625 86.901C331.469 87.8852 329.552 89.2428 327.498 90.3289C326.985 90.0234 326.506 89.6161 326.437 89.0052C327.909 87.4779 330.202 86.4259 332.222 85.4417C333.077 85.6113 333.454 86.1883 333.625 86.901Z" fill="black"/>
<defs>
<clipPath id="clip0_2418_18670">
<path d="M3.6001 86.55C3.6001 80.5853 8.43542 75.75 14.4001 75.75L305.8 75.75V197.25H14.4001C8.43541 197.25 3.6001 192.415 3.6001 186.45L3.6001 86.55Z" fill="white"/>
</clipPath>
</defs>
</svg>
