<svg width="100" height="100" viewBox="0 0 100 100" fill="none" xmlns="http://www.w3.org/2000/svg">
<path d="M62.7367 35.8583C61.6531 29.4045 66.6669 23.5294 73.2582 23.5294H90V28.8235C90 28.8235 80.1678 37.2976 79.3333 44.7059C78.5093 52.0205 86 62.3529 86 62.3529L86 65.8824H81.1118C82.2277 67.357 82.8889 69.1901 82.8889 71.1765C82.8889 76.0496 78.9092 80 74 80C69.0908 80 65.1111 76.0496 65.1111 71.1765C65.1111 69.1901 65.7723 67.357 66.8882 65.8824H48.2229C49.3388 67.357 50 69.1901 50 71.1765C50 76.0496 46.0203 80 41.1111 80C36.2019 80 32.2222 76.0496 32.2222 71.1765C32.2222 69.1901 32.8835 67.357 33.9993 65.8824H31.3333L24.2222 80H10L24.2222 65.8824C18.3312 65.8824 13.5556 61.1418 13.5556 55.2941C13.5556 49.4464 18.3312 44.7059 24.2222 44.7059L17.1111 23.5294L20.6667 20L34.8889 20L38.4444 23.5294L31.3333 44.7059L64.2222 44.7059L62.7367 35.8583Z" fill="black"/>
</svg>
